<svg id="Layer_1" data-name="Layer 1" xmlns="http://www.w3.org/2000/svg" viewBox="0 0 665.84 246.48"><defs><style>.cls-1{fill:#fff;}</style></defs><path class="cls-1" d="M27.75,228.89a4.23,4.23,0,0,1-4.22-4.23,5.71,5.71,0,0,1,.27-1.7c-.05-4.56-.57-16.42-1.54-35.28-1.2-21.07-2.1-34.56-2.66-40.08a4.23,4.23,0,0,1,4-4.65c30.27-1.31,52.35-2.3,65.62-3,2.68-.18,5.11-.33,7.2-.42a4.31,4.31,0,0,1,4.41,4,4.21,4.21,0,0,1-4,4.41q-3.06.15-7.09.42C77,149.06,56.44,150,28.4,151.2c.49,6.13,1.13,16,1.92,29.5H44.8c7.46.19,14.79.1,21.9-.27s14.7-.89,22.4-1.54a4.22,4.22,0,1,1,.71,8.42c-7.78.66-15.41,1.18-22.67,1.56s-14.87.48-22.45.29H30.8c1,19.2,1.46,30.5,1.46,34.51a4.21,4.21,0,0,1-.3,1.57c0,.08,0,.06,0,0A4.23,4.23,0,0,1,27.75,228.89Zm127.64-1.55a4.23,4.23,0,0,1-4.22-4.05l-3.38-80.59a4.23,4.23,0,1,1,8.45-.35l3.2,76.35c6.19-.15,16.7-.7,31.33-1.64a4.23,4.23,0,0,1,.54,8.44c-17.73,1.13-29.13,1.69-34.84,1.7a4.44,4.44,0,0,1-.9.13Zm-35.78-.14a4.73,4.73,0,0,1-.52,0,4.22,4.22,0,0,1-3.67-4.71c.3-2.46.57-18.07.1-78.48a4.23,4.23,0,0,1,4.2-4.26h0A4.23,4.23,0,0,1,124,143.9c.56,73.65,0,78.12-.18,79.59A4.23,4.23,0,0,1,119.61,227.2Zm92.42-.57a4.2,4.2,0,0,1-3-1.23c-1.52-1.51-1.81-3.71-1.81-7.22.19-8.11,1.11-22.43,2.83-43.87,2.15-25.76,2.72-31.61,3-33.25v-.23a4.22,4.22,0,0,1,8.15-1.55c8,20.24,14.72,38.4,20.07,54,1.24,3.67,2.48,7.4,3.7,11.15,8.18-37.49,13.15-59,15.13-65.39a4.22,4.22,0,0,1,8.22-1.27,234.17,234.17,0,0,0,19.11,40.67c2,3.42,6.65,10.83,13.72,22,.63,1,2,3.25,5.5,11.26a66.23,66.23,0,0,0,3.31,6.14,4.23,4.23,0,0,1-5.12,6.66c-1.19-.71-1.93-1.4-5.83-9.2-3.27-7.38-4.5-9.58-5-10.26-7.16-11.3-11.83-18.77-13.92-22.3a268.33,268.33,0,0,1-15-29.6c-3.17,13.18-8.29,36.13-15.32,68.63a4.21,4.21,0,0,1-4.06,3.33h-.07a4.23,4.23,0,0,1-4.1-3.19l-.14-.56c-2.63-8.43-5.42-17-8.22-25.33-3.78-11-8.28-23.35-13.41-36.81-.36,4.2-.8,9.4-1.34,15.81-1.67,21-2.62,35.54-2.8,43.28a17.93,17.93,0,0,0,.1,2.19,4.24,4.24,0,0,1-.77,4.92A4.19,4.19,0,0,1,212,226.63ZM159.76,115.19a4.24,4.24,0,0,1-3.52-1.88c-.8-1.2-1.63-2.44-4.79-29.2-7.31-.14-13.11-.07-17.3.22-2,10-3.13,17.55-3.39,22.45a4.35,4.35,0,0,1,.46,1.25,4.22,4.22,0,0,1-3.32,5,4.62,4.62,0,0,1-4-1.07,5.81,5.81,0,0,1-1.61-5c.28-7.65,2.67-21.32,7.28-41.58C135.21,44,138.7,30.13,140,24.14a4,4,0,0,1,.35-1c0-.1.1-.2.13-.28a4.23,4.23,0,0,1,8.27-.85c4.55,15.46,8.15,34.78,10.71,57.44l0,.43h0v0h0V80c2.66,22.83,3.7,27.93,4.05,29.06a4.22,4.22,0,0,1-3.77,6.12Zm-15-74.61c-1.75,6.91-4.06,15.81-6.95,26.8q-1,4.4-1.85,8.38c3.9-.18,8.72-.22,14.56-.12C148.92,62.72,147,51,144.73,40.58ZM80.59,114.77H80.5l-55.23-1.13a4.23,4.23,0,0,1-4.13-4.52A126.59,126.59,0,0,0,21,91.68C20.34,79,19.86,55.61,19.58,22.1v-.74a4.21,4.21,0,0,1,.17-1.18A4.22,4.22,0,0,1,24,16.43h.7c28.33,1,56,1.88,82.24,2.54a4.23,4.23,0,0,1-.21,8.45C81.46,26.79,55,26,28.06,25q.2,21.84.5,37.62c14.2-.12,28.32-.44,42-1q10.83-.42,19.83-.84a4.18,4.18,0,0,1,4.42,4,4.24,4.24,0,0,1-4,4.42q-9,.42-19.89.85c-13.73.53-27.9.85-42.15,1,.2,8.38.44,15.09.7,20.08s.47,9.76.35,14.12l50.63,1c5.82-.55,10.39-.85,13.82-.89a4.23,4.23,0,0,1,7.17,2.54l.14,1.27a4.23,4.23,0,0,1-4.44,4.69,122,122,0,0,0-16.12.83Zm109.18,0h0a4.23,4.23,0,0,1-4.22-4.24q.15-42.84.43-88.07v-.67a4.22,4.22,0,0,1,4.22-4.23,4.17,4.17,0,0,1,.71.06,3,3,0,0,1,.79-.06l20.43.42a4.17,4.17,0,0,1,1,.16c12.57,3.52,20.91,7.47,25.51,12.07,4.13,4.35,6.17,10.78,6.17,19.19-.33,10.6-6.6,19.33-18.64,26.09a77.81,77.81,0,0,1-22.84,8.2c6.89,4.72,13.7,9,20.32,12.75,4.69,2.81,9.11,5.28,13.22,7.38a4.23,4.23,0,0,1-3.84,7.53c-4.29-2.19-8.88-4.75-13.64-7.61-8.19-4.66-16.72-10.11-25.35-16.2q0,11.59-.08,23A4.23,4.23,0,0,1,189.77,114.77Zm4.62-88.7q-.15,25.64-.26,50.47a72.85,72.85,0,0,0,28-8.43c9.39-5.28,14.08-11.44,14.31-18.85,0-6-1.27-10.51-3.77-13.16-2.3-2.29-7.92-5.9-21.23-9.68Zm142.18,86.3h-.21a4.23,4.23,0,0,1-4-4.43c.35-7.21-.07-17.33-1.26-30.09a76.52,76.52,0,0,1-7.19-9.06c-3.74-5-12-18-25.31-39.58a4.23,4.23,0,0,1,3.6-6.44h1.13A4.23,4.23,0,0,1,307.55,27a5.46,5.46,0,0,1,0,.57c12,19.42,19.81,31.65,23.3,36.36a65.3,65.3,0,0,0,4.48,5.91c10.2-14.59,17.24-25,20.95-30.86,7-10.48,7.63-13.18,7.69-13.62a4.31,4.31,0,0,1,4.2-3.72h.7A4.23,4.23,0,0,1,371.65,29c-.95,2.59-3.14,6.79-8.32,14.55-4,6.41-12,18.16-23.7,34.81,1.13,12.55,1.52,22.62,1.16,30A4.23,4.23,0,0,1,336.57,112.37Zm171.32-.56a3.91,3.91,0,0,1-.68-.06,4.21,4.21,0,0,1-3.55-4.17v-.7a4.28,4.28,0,0,1,.67-2.29c.07-.21.15-.43.24-.64,1.83-7.51,3.54-14.41,5.12-20.57a4.23,4.23,0,0,1,1.76-6.85c5.23-20.38,8.2-32.13,9.09-35.86.75-2.83,1.87-8.09,3.35-15.74A4.22,4.22,0,0,1,528,21.5h.71a4.23,4.23,0,0,1,4.13,3.35c.14.64.46,2.16,6.54,52.07,1.63,14.16,2.6,23.38,3,28.22a4.36,4.36,0,0,1,0,1,4.67,4.67,0,0,0-.09.72,4.23,4.23,0,1,1-8.45,0,14.16,14.16,0,0,1,.11-1.56c-.32-4-1-10.93-2.14-20.75-4.75-.1-9.34-.08-13.68.06-1.66,6.45-3.47,13.73-5.4,21.7a4.07,4.07,0,0,1-.33.88c0,.06-.06.27-.09.37l0,.12c-.12.46-.24.87-.36,1.22A4.21,4.21,0,0,1,507.89,111.81Zm19.49-63.57c-1.42,5.65-3.77,14.89-7.09,27.88,3.39-.08,6.9-.08,10.51,0C529.36,64.31,528.24,55.21,527.38,48.24Zm-125,63.57a4.22,4.22,0,0,1-4.22-4.23,10.32,10.32,0,0,1,.19-1.93c2.16-17.19,4.87-34.57,8.05-51.67,2.37-13.57,4.29-23.44,5.7-29.32v-.2a4.23,4.23,0,0,1,8.36-.89C426.62,52.09,431,73,433.72,86.5c5.36-22.13,8.82-36.68,10.3-43.37,2.05-8.64,3.44-15.49,4.18-20.41a4.21,4.21,0,0,1,4.18-3.61h.7a4.24,4.24,0,0,1,3.83,2.43Q481,73,494.53,102.14a4.14,4.14,0,0,1,.19.49,4.25,4.25,0,0,1-1,5.79,4.2,4.2,0,0,1-5.86-.84,7.14,7.14,0,0,1-1.14-2.16q-12.06-26-32.42-69.48c-.6,2.78-1.28,5.81-2.06,9.08-1.86,8.39-6.84,29.23-14.8,61.87a4.18,4.18,0,0,1-4.4,3.22,4.24,4.24,0,0,1-3.77-3.06,4.32,4.32,0,0,1-.84-2.11c-.54-5-4.56-25-11.95-59.54q-.86,4.62-1.8,10.08c-3.17,17-5.85,34.29-8,51.36,0,.1,0,.2-.05.3a1.92,1.92,0,0,0-.06.44A4.23,4.23,0,0,1,402.36,111.81Zm-136.09-.42a4.23,4.23,0,0,1-4.23-4.32l1.69-80.16A4.23,4.23,0,0,1,268,22.77h.71A4.22,4.22,0,0,1,272.89,27a4.27,4.27,0,0,1-.75,2.41l-1.55,73.49,29.59-.25h0a4.23,4.23,0,0,1,0,8.46l-34,.28ZM645,109.7a5.16,5.16,0,0,1-3.3-1.17,3,3,0,0,1-.43-.29c-8.47-6.59-16.68-13.27-24.38-19.84-13.1-11.13-30.89-28-53-50.19-.23,5.95-.5,15.45-.8,30.43l-.56,23.41c.19,5.29.28,8.25.28,8.63a5,5,0,0,0,.24,1.92,4.31,4.31,0,0,1-1.59,5.75,4.14,4.14,0,0,1-5.65-1.41,11.87,11.87,0,0,1-1.45-6.26c0-.44-.1-3.31-.28-8.59l.56-23.63c.64-32.19,1.14-38.58,1.46-40.58a4.22,4.22,0,0,1,7.18-2.3c25,25.34,44.83,44.31,59.05,56.38,5.91,5.06,12.13,10.17,18.54,15.26l.13-7c-.47-8.48-.89-21.08-1.27-37.46-.1-16.88-.08-21.62,0-23.24a5.67,5.67,0,0,1,1.38-4.35,4.07,4.07,0,0,1,.65-.53c.33-.22.88-.56,1.65-1a4.23,4.23,0,0,1,4.73,7c0,1.65,0,6.81.05,22,.37,16.31.79,28.88,1.26,37.27v.31l-.28,15.36A4.23,4.23,0,0,1,645,109.7Z"/></svg>